<?xml version="1.0" encoding="UTF-8" standalone="no"?>
<!-- Created with Inkscape (http://www.inkscape.org/) -->

<svg
   xmlns:dc="http://purl.org/dc/elements/1.1/"
   xmlns:cc="http://creativecommons.org/ns#"
   xmlns:rdf="http://www.w3.org/1999/02/22-rdf-syntax-ns#"
   xmlns:svg="http://www.w3.org/2000/svg"
   xmlns="http://www.w3.org/2000/svg"
   xmlns:sodipodi="http://sodipodi.sourceforge.net/DTD/sodipodi-0.dtd"
   xmlns:inkscape="http://www.inkscape.org/namespaces/inkscape"
   width="201.73625"
   height="29.08"
   id="svg2"
   version="1.1"
   inkscape:version="0.48.4 r9939"
   sodipodi:docname="web-mockup.svg">
  <defs
     id="defs4" />
  <sodipodi:namedview
     id="base"
     pagecolor="#ffffff"
     bordercolor="#666666"
     borderopacity="1.0"
     inkscape:pageopacity="0.0"
     inkscape:pageshadow="2"
     inkscape:zoom="3.959798"
     inkscape:cx="104.68847"
     inkscape:cy="-40.669872"
     inkscape:document-units="px"
     inkscape:current-layer="layer1"
     showgrid="false"
     showguides="true"
     inkscape:guide-bbox="true"
     inkscape:window-width="1274"
     inkscape:window-height="715"
     inkscape:window-x="1"
     inkscape:window-y="24"
     inkscape:window-maximized="0"
     fit-margin-top="0"
     fit-margin-left="0"
     fit-margin-right="0"
     fit-margin-bottom="0" />
  <metadata
     id="metadata7">
    <rdf:RDF>
      <cc:Work
         rdf:about="">
        <dc:format>image/svg+xml</dc:format>
        <dc:type
           rdf:resource="http://purl.org/dc/dcmitype/StillImage" />
        <dc:title></dc:title>
      </cc:Work>
    </rdf:RDF>
  </metadata>
  <g
     inkscape:label="Layer 1"
     inkscape:groupmode="layer"
     id="layer1"
     transform="translate(-68.274287,-75.270756)">
    <g
       style="font-size:40px;font-style:italic;font-variant:normal;font-weight:normal;font-stretch:normal;line-height:125%;letter-spacing:0px;word-spacing:0px;fill:#000000;fill-opacity:1;stroke:none;font-family:Intro Inline;-inkscape-font-specification:Intro Inline Italic"
       id="text3767">
      <path
         d="m 80.194287,79.150756 c 2.799997,0 5.04,2.440003 5.04,5.24 0,2.839997 -2.160003,5.2 -5.04,5.2 l -8.16,0 0,-10.44 8.16,0 m 8.76,5.24 c 0,-4.839995 -3.880005,-8.6 -8.72,-8.6 l -11.96,0 0,28.000004 13.12,0 c 5.719994,0 8.68,-3.960009 8.72,-8.840004 0,-2.479997 -1.080002,-4.560001 -3.36,-5.72 1.359998,-1.119999 2.2,-3.160001 2.2,-4.84 m -8.76,-5.6 c 2.999997,0 5.44,2.560003 5.44,5.6 0,2.079998 -1.520002,4.680001 -3.56,5.16 l 0,0.16 c 2.679997,0.12 4.72,2.600003 4.72,5.24 0,2.999997 -2.440003,5.880004 -5.48,5.880004 l -9.68,0 0,-22.040004 8.56,0 m 1.12,11.16 c 2.759997,0 5.08,2.160003 5.08,5 0,2.839997 -2.320003,5.480004 -5.08,5.480004 l -9.28,0 0,-10.480004 9.28,0 m -0.44,2.88 -5.68,0 0,4.6 5.72,0 c 2.879997,0 2.839997,-4.6 -0.04,-4.6 m -5.68,-10.64 0,4.44 4.52,0 c 2.839997,0 2.839997,-4.44 -0.04,-4.44 l -4.48,0"
         style="font-style:normal;font-family:Intro Inline;-inkscape-font-specification:Intro Inline"
         id="path4050" />
      <path
         d="m 100.29616,100.47076 0,-21.320004 -3.879998,0 0,-0.4 8.119998,0 0,0.4 -3.84,0 0,21.320004 4.16,0 0,0.4 -8.799998,0 0,-0.4 4.239998,0 m 3.72,-2.960004 0,-15.48 3.28,0 0,-6.24 -13.639998,0 0,6.24 3.28,0 0,15.48 -3.56,0 0,6.280004 14.199998,0 0,-6.280004 -3.56,0"
         style="font-style:normal;font-family:Intro Inline;-inkscape-font-specification:Intro Inline"
         id="path4052" />
      <path
         d="m 110.53866,89.790756 c 0.04,9.559991 7.24001,14.320004 14.36,14.320004 5.16,0 10.48,-2.24001 12.48,-8.080004 0.96,-2.719997 0.96,-5.400003 0.8,-8.2 l -13.24,0 0,6.2 5.96,0 c -1.28,2.679998 -3.12,3.44 -6,3.44 -4.23999,0 -6.96,-3.040004 -6.96,-7.68 0,-4.279995 2.44001,-7.8 6.96,-7.8 2.84,0 4.68,0.960003 5.84,3.36 l 7.04,0 c -1.36,-6.959993 -7.24,-9.88 -12.88,-9.92 -7.11999,0 -14.32,4.80001 -14.36,14.36 m 17.12,0.8 7.4,0 0,0.44 c 0,5.879994 -4.48,9.960004 -10.16,9.960004 -5.43999,0.04 -10.88,-3.920011 -10.88,-11.200004 0,-7.279992 5.44001,-11.2 10.88,-11.2 3.32,0 6.88,1.520003 8.68,4.64 l -0.48,0 c -1.72,-2.839997 -4.92,-4.28 -8.2,-4.28 -6.07999,-0.04 -10.44,4.680006 -10.44,10.84 0,6.239994 4.36001,10.800004 10.44,10.800004 5.56,0 9.64,-3.80001 9.72,-9.560004 l -6.96,0 0,-0.44"
         style="font-style:normal;font-family:Intro Inline;-inkscape-font-specification:Intro Inline"
         id="path4054" />
      <path
         d="m 153.78116,75.270756 c -5.67999,0 -10.44,3.520006 -10.44,9.64 0,3.119997 0,6.680003 0,9.8 0,6.119994 4.76001,9.640004 10.44,9.640004 5.8,0 10.52,-3.52001 10.52,-9.640004 0,-3.119997 0,-6.680003 0,-9.8 0,-6.119994 -4.72,-9.64 -10.52,-9.64 m 0,26.080004 c -3.91999,0 -7.28,-2.520008 -7.28,-6.800004 0,-2.999997 0,-6.480003 0,-9.52 0,-4.319995 3.36001,-6.76 7.28,-6.76 4.04,0 7.36,2.440005 7.36,6.76 0,3.039997 0,6.520003 0,9.52 0,4.279996 -3.32,6.800004 -7.36,6.800004 m 0,-3.360004 c -2.04,0 -3.64,-1.160002 -3.64,-3.44 0,-2.999997 0,-6.480003 0,-9.52 0,-2.199998 1.6,-3.36 3.64,-3.36 2.12,0 3.76,1.160002 3.76,3.36 0,3.039997 0,6.520003 0,9.52 0,2.279998 -1.64,3.44 -3.76,3.44 m 0,-19.36 c -3.71999,0 -6.84,2.280004 -6.84,6.4 0,3.039997 0,6.520003 0,9.52 0,4.079996 3.12001,6.440004 6.84,6.440004 3.84,0 6.88,-2.360008 6.88,-6.440004 0,-2.999997 0,-6.480003 0,-9.52 0,-4.119996 -3.04,-6.4 -6.88,-6.4"
         style="fill:#fff6d5;font-family:Intro Inline;-inkscape-font-specification:Intro Inline"
         id="path4056" />
      <path
         d="m 192.52866,103.83076 2.56,0 0,-28.040004 c -2.44,0 -4.88,0 -7.32,0 l 0,13.72 -14.16,-13.84 -2.6,0 0,28.120004 c 2.44,0 4.92,0 7.4,0 l 0,-13.760004 14.12,13.800004 m -18.12,-22.400004 0.44,0 c 2.68,2.599998 5.36,5.240003 7.96,7.88 2.84,2.639998 5.6,5.400003 8.4,8.16 l 0,-18.96 0.44,0 0,19.64 -0.32,0 c -2.76,-2.679997 -5.44,-5.280002 -8.12,-7.92 -2.72,-2.679997 -5.52,-5.440002 -8.32,-8.12 l 0,18.920004 -0.48,0 0,-19.600004"
         style="fill:#fff6d5;font-family:Intro Inline;-inkscape-font-specification:Intro Inline"
         id="path4058" />
      <path
         d="m 206.78054,100.47076 0,-21.320004 -3.88,0 0,-0.4 8.12,0 0,0.4 -3.84,0 0,21.320004 4.16,0 0,0.4 -8.8,0 0,-0.4 4.24,0 m 3.72,-2.960004 0,-15.48 3.28,0 0,-6.24 -13.64,0 0,6.24 3.28,0 0,15.48 -3.56,0 0,6.280004 14.2,0 0,-6.280004 -3.56,0"
         style="fill:#fff6d5;font-family:Intro Inline;-inkscape-font-specification:Intro Inline"
         id="path4060" />
      <path
         d="m 228.70304,75.270756 c -5.68,0 -10.44,3.520006 -10.44,9.64 0,3.119997 0,6.680003 0,9.8 0,6.119994 4.76,9.640004 10.44,9.640004 5.79999,0 10.52,-3.52001 10.52,-9.640004 0,-3.119997 0,-6.680003 0,-9.8 0,-6.119994 -4.72001,-9.64 -10.52,-9.64 m 0,26.080004 c -3.92,0 -7.28,-2.520008 -7.28,-6.800004 0,-2.999997 0,-6.480003 0,-9.52 0,-4.319995 3.36,-6.76 7.28,-6.76 4.03999,0 7.36,2.440005 7.36,6.76 0,3.039997 0,6.520003 0,9.52 0,4.279996 -3.32001,6.800004 -7.36,6.800004 m 0,-3.360004 c -2.04,0 -3.64,-1.160002 -3.64,-3.44 0,-2.999997 0,-6.480003 0,-9.52 0,-2.199998 1.6,-3.36 3.64,-3.36 2.11999,0 3.76,1.160002 3.76,3.36 0,3.039997 0,6.520003 0,9.52 0,2.279998 -1.64001,3.44 -3.76,3.44 m 0,-19.36 c -3.72,0 -6.84,2.280004 -6.84,6.4 0,3.039997 0,6.520003 0,9.52 0,4.079996 3.12,6.440004 6.84,6.440004 3.83999,0 6.88,-2.360008 6.88,-6.440004 0,-2.999997 0,-6.480003 0,-9.52 0,-4.119996 -3.04001,-6.4 -6.88,-6.4"
         style="fill:#fff6d5;font-family:Intro Inline;-inkscape-font-specification:Intro Inline"
         id="path4062" />
      <path
         d="m 267.45054,103.83076 2.56,0 0,-28.040004 c -2.44,0 -4.88001,0 -7.32,0 l 0,13.72 -14.16,-13.84 -2.6,0 0,28.120004 c 2.43999,0 4.92,0 7.4,0 l 0,-13.760004 14.12,13.800004 m -18.12,-22.400004 0.44,0 c 2.67999,2.599998 5.36,5.240003 7.96,7.88 2.83999,2.639998 5.6,5.400003 8.4,8.16 l 0,-18.96 0.44,0 0,19.64 -0.32,0 c -2.76,-2.679997 -5.44001,-5.280002 -8.12,-7.92 -2.72,-2.679997 -5.52001,-5.440002 -8.32,-8.12 l 0,18.920004 -0.48,0 0,-19.600004"
         style="fill:#fff6d5;font-family:Intro Inline;-inkscape-font-specification:Intro Inline"
         id="path4064" />
    </g>
  </g>
</svg>
