<?xml version="1.0" encoding="UTF-8" standalone="no"?>
<!-- Created with Inkscape (http://www.inkscape.org/) -->

<svg
   xmlns:dc="http://purl.org/dc/elements/1.1/"
   xmlns:cc="http://creativecommons.org/ns#"
   xmlns:rdf="http://www.w3.org/1999/02/22-rdf-syntax-ns#"
   xmlns:svg="http://www.w3.org/2000/svg"
   xmlns="http://www.w3.org/2000/svg"
   xmlns:sodipodi="http://sodipodi.sourceforge.net/DTD/sodipodi-0.dtd"
   xmlns:inkscape="http://www.inkscape.org/namespaces/inkscape"
   width="160"
   height="160"
   id="svg2"
   version="1.1"
   inkscape:version="0.48.4 r9939"
   sodipodi:docname="web-mockup.svg">
  <defs
     id="defs4" />
  <sodipodi:namedview
     id="base"
     pagecolor="#ffffff"
     bordercolor="#666666"
     borderopacity="1.0"
     inkscape:pageopacity="0.0"
     inkscape:pageshadow="2"
     inkscape:zoom="2.8"
     inkscape:cx="106.52633"
     inkscape:cy="74.573848"
     inkscape:document-units="px"
     inkscape:current-layer="text3767"
     showgrid="false"
     showguides="true"
     inkscape:guide-bbox="true"
     inkscape:window-width="1274"
     inkscape:window-height="716"
     inkscape:window-x="1"
     inkscape:window-y="24"
     inkscape:window-maximized="0"
     fit-margin-top="0"
     fit-margin-left="0"
     fit-margin-right="0"
     fit-margin-bottom="0" />
  <metadata
     id="metadata7">
    <rdf:RDF>
      <cc:Work
         rdf:about="">
        <dc:format>image/svg+xml</dc:format>
        <dc:type
           rdf:resource="http://purl.org/dc/dcmitype/StillImage" />
        <dc:title></dc:title>
      </cc:Work>
    </rdf:RDF>
  </metadata>
  <g
     inkscape:label="Layer 1"
     inkscape:groupmode="layer"
     id="layer1"
     transform="translate(-50.844467,-15.569708)">
    <rect
       style="fill:#7b6e3f;fill-opacity:0.94117647;stroke:none"
       id="rect2985"
       width="160"
       height="160"
       x="50.844467"
       y="15.569708" />
    <path
       inkscape:connector-curvature="0"
       id="path3763"
       d="M 53.538085,26.94062 207.90645,26.792687"
       style="fill:#ffd42a;stroke:#d4aa00;stroke-width:2;stroke-linecap:butt;stroke-linejoin:miter;stroke-miterlimit:4;stroke-opacity:1;stroke-dasharray:2, 2;stroke-dashoffset:0"
       sodipodi:nodetypes="cc" />
    <rect
       style="fill:#ffcc00;fill-opacity:1;stroke:#d4aa00;stroke-width:1.68639612;stroke-miterlimit:4;stroke-opacity:1;stroke-dasharray:1.68639616, 1.68639616;stroke-dashoffset:0"
       id="rect3765"
       width="153.52788"
       height="126.27426"
       x="54.33812"
       y="32.843884" />
    <g
       style="font-size:40px;font-style:italic;font-variant:normal;font-weight:normal;font-stretch:normal;line-height:125%;letter-spacing:0px;word-spacing:0px;fill:#000000;fill-opacity:1;stroke:none;font-family:Intro Inline;-inkscape-font-specification:Intro Inline Italic"
       id="text3767">
      <path
         d="m 89.866336,54.897872 c 5.071952,0 9.129524,4.419854 9.129524,9.491806 0,5.144409 -3.912659,9.419351 -9.129524,9.419351 l -14.781134,0 0,-18.911157 14.781134,0 m 15.867984,9.491806 c 0,-8.767232 -7.028295,-15.578156 -15.795527,-15.578156 l -21.664506,0 0,50.719588 23.765745,0 c 10.361278,0 15.723068,-7.173216 15.795528,-16.012905 0,-4.4923 -1.95633,-8.260047 -6.08635,-10.361285 2.46352,-2.028782 3.98511,-5.724069 3.98511,-8.767242 M 89.866336,54.245763 c 5.434235,0 9.854089,4.637224 9.854089,10.143915 0,3.767737 -2.753352,8.477417 -6.448632,9.346894 l 0,0.289826 c 4.854583,0.21737 8.549877,4.709681 8.549877,9.491807 0,5.434235 -4.419859,10.651119 -9.926551,10.651119 l -17.534483,0 0,-39.923561 15.5057,0 m 2.028783,20.215375 c 4.999496,0 9.201981,3.912658 9.201981,9.057067 0,5.144409 -4.202485,9.926553 -9.201981,9.926553 l -16.809917,0 0,-18.98362 16.809917,0 m -0.797022,5.21687 -10.288829,0 0,8.332503 10.361286,0 c 5.216865,0 5.144409,-8.332503 -0.07246,-8.332503 m -10.288829,-19.273439 0,8.042676 8.18759,0 c 5.144408,0 5.144408,-8.042676 -0.07246,-8.042676 l -8.115133,0"
         style="font-style:normal;font-family:Intro Inline;-inkscape-font-specification:Intro Inline"
         id="path3860"
         inkscape:connector-curvature="0" />
      <path
         d="m 126.27914,93.517215 0,-38.619343 -7.02828,0 0,-0.724566 14.70867,0 0,0.724566 -6.95582,0 0,38.619343 7.53548,0 0,0.724565 -15.94044,0 0,-0.724565 7.68039,0 m 6.73846,-5.361791 0,-28.040681 5.94143,0 0,-11.303221 -24.70767,0 0,11.303221 5.94143,0 0,28.040681 -6.44863,0 0,11.375686 25.72207,0 0,-11.375686 -6.44863,0"
         style="font-style:normal;font-family:Intro Inline;-inkscape-font-specification:Intro Inline"
         id="path3862"
         inkscape:connector-curvature="0" />
      <path
         d="m 144.83254,74.171311 c 0.0725,17.317097 13.11465,25.939449 26.0119,25.939449 9.34689,0 18.98361,-4.05758 22.60644,-14.636228 1.73896,-4.92704 1.73896,-9.781639 1.44913,-14.853591 l -23.98311,0 0,11.230764 10.79602,0 c -2.31861,4.854584 -5.65161,6.231262 -10.86848,6.231262 -7.68037,0 -12.60744,-5.506704 -12.60744,-13.911656 0,-7.75284 4.41987,-14.129025 12.60744,-14.129025 5.14442,0 8.47742,1.738962 10.57866,6.086349 l 12.75235,0 C 191.71192,53.52121 181.06081,48.23187 170.84444,48.159413 c -12.89725,0 -25.93944,8.694803 -26.0119,26.011898 m 31.0114,1.449131 13.40446,0 0,0.797022 c 0,10.651101 -8.11513,18.041686 -18.40396,18.041686 -9.85407,0.07246 -19.70818,-7.100761 -19.70818,-20.287839 0,-13.187075 9.85411,-20.287831 19.70818,-20.287831 6.01389,0 12.46253,2.753354 15.72307,8.404959 l -0.86948,0 c -3.11563,-5.144409 -8.91215,-7.75285 -14.85359,-7.75285 -11.01337,-0.07246 -18.91116,8.477426 -18.91116,19.635722 0,11.30321 7.89779,19.563273 18.91116,19.563273 10.07146,0 17.46203,-6.883389 17.60694,-17.31712 l -12.60744,0 0,-0.797022"
         style="font-style:normal;font-family:Intro Inline;-inkscape-font-specification:Intro Inline"
         id="path3864"
         inkscape:connector-curvature="0" />
      <path
         d="m 79.029872,113.57533 c -5.67999,0 -10.44,3.52001 -10.44,9.64 0,3.12 0,6.68001 0,9.8 0,6.12 4.76001,9.64001 10.44,9.64001 5.8,0 10.52,-3.52001 10.52,-9.64001 0,-3.11999 0,-6.68 0,-9.8 0,-6.11999 -4.72,-9.64 -10.52,-9.64 m 0,26.08001 c -3.91999,0 -7.28,-2.52001 -7.28,-6.80001 0,-2.99999 0,-6.48 0,-9.52 0,-4.31999 3.36001,-6.76 7.28,-6.76 4.04,0 7.36,2.44001 7.36,6.76 0,3.04 0,6.52001 0,9.52 0,4.28 -3.32,6.80001 -7.36,6.80001 m 0,-3.36001 c -2.04,0 -3.64,-1.16 -3.64,-3.44 0,-2.99999 0,-6.48 0,-9.52 0,-2.2 1.6,-3.36 3.64,-3.36 2.12,0 3.76,1.16 3.76,3.36 0,3.04 0,6.52001 0,9.52 0,2.28 -1.64,3.44 -3.76,3.44 m 0,-19.36 c -3.71999,0 -6.84,2.28001 -6.84,6.4 0,3.04 0,6.52001 0,9.52 0,4.08 3.12001,6.44001 6.84,6.44001 3.84,0 6.88,-2.36001 6.88,-6.44001 0,-2.99999 0,-6.48 0,-9.52 0,-4.11999 -3.04,-6.4 -6.88,-6.4"
         style="fill:#fff6d5;font-family:Intro Inline;-inkscape-font-specification:Intro Inline"
         id="path3866"
         inkscape:connector-curvature="0" />
      <path
         d="m 117.77737,142.13534 2.56,0 0,-28.04001 c -2.44,0 -4.88,0 -7.32,0 l 0,13.72 -14.159998,-13.84 -2.6,0 0,28.12001 c 2.44,0 4.919998,0 7.399998,0 l 0,-13.76001 14.12,13.80001 m -18.119998,-22.40001 0.439998,0 c 2.68,2.6 5.36,5.24001 7.96,7.88 2.84,2.64 5.6,5.40001 8.4,8.16 l 0,-18.96 0.44,0 0,19.64 -0.32,0 c -2.76,-2.67999 -5.44,-5.28 -8.12,-7.92 -2.72,-2.67999 -5.52,-5.44 -8.32,-8.12 l 0,18.92001 -0.479998,0 0,-19.60001"
         style="fill:#fff6d5;font-family:Intro Inline;-inkscape-font-specification:Intro Inline"
         id="path3868"
         inkscape:connector-curvature="0" />
      <path
         d="m 132.02925,138.77534 0,-21.32001 -3.88,0 0,-0.4 8.12,0 0,0.4 -3.84,0 0,21.32001 4.16,0 0,0.4 -8.8,0 0,-0.4 4.24,0 m 3.72,-2.96001 0,-15.48 3.28,0 0,-6.24 -13.64,0 0,6.24 3.28,0 0,15.48 -3.56,0 0,6.28001 14.2,0 0,-6.28001 -3.56,0"
         style="fill:#fff6d5;font-family:Intro Inline;-inkscape-font-specification:Intro Inline"
         id="path3870"
         inkscape:connector-curvature="0" />
      <path
         d="m 153.95175,113.57533 c -5.68,0 -10.44,3.52001 -10.44,9.64 0,3.12 0,6.68001 0,9.8 0,6.12 4.76,9.64001 10.44,9.64001 5.79999,0 10.52,-3.52001 10.52,-9.64001 0,-3.11999 0,-6.68 0,-9.8 0,-6.11999 -4.72001,-9.64 -10.52,-9.64 m 0,26.08001 c -3.92,0 -7.28,-2.52001 -7.28,-6.80001 0,-2.99999 0,-6.48 0,-9.52 0,-4.31999 3.36,-6.76 7.28,-6.76 4.03999,0 7.36,2.44001 7.36,6.76 0,3.04 0,6.52001 0,9.52 0,4.28 -3.32001,6.80001 -7.36,6.80001 m 0,-3.36001 c -2.04,0 -3.64,-1.16 -3.64,-3.44 0,-2.99999 0,-6.48 0,-9.52 0,-2.2 1.6,-3.36 3.64,-3.36 2.11999,0 3.76,1.16 3.76,3.36 0,3.04 0,6.52001 0,9.52 0,2.28 -1.64001,3.44 -3.76,3.44 m 0,-19.36 c -3.72,0 -6.84,2.28001 -6.84,6.4 0,3.04 0,6.52001 0,9.52 0,4.08 3.12,6.44001 6.84,6.44001 3.83999,0 6.88,-2.36001 6.88,-6.44001 0,-2.99999 0,-6.48 0,-9.52 0,-4.11999 -3.04001,-6.4 -6.88,-6.4"
         style="fill:#fff6d5;font-family:Intro Inline;-inkscape-font-specification:Intro Inline"
         id="path3872"
         inkscape:connector-curvature="0" />
      <path
         d="m 192.69925,142.13534 2.56,0 0,-28.04001 c -2.44,0 -4.88001,0 -7.32,0 l 0,13.72 -14.16,-13.84 -2.6,0 0,28.12001 c 2.43999,0 4.92,0 7.4,0 l 0,-13.76001 14.12,13.80001 m -18.12,-22.40001 0.44,0 c 2.67999,2.6 5.36,5.24001 7.96,7.88 2.83999,2.64 5.6,5.40001 8.4,8.16 l 0,-18.96 0.44,0 0,19.64 -0.32,0 c -2.76,-2.67999 -5.44001,-5.28 -8.12,-7.92 -2.72,-2.67999 -5.52001,-5.44 -8.32,-8.12 l 0,18.92001 -0.48,0 0,-19.60001"
         style="fill:#fff6d5;font-family:Intro Inline;-inkscape-font-specification:Intro Inline"
         id="path3874"
         inkscape:connector-curvature="0" />
    </g>
    <flowRoot
       xml:space="preserve"
       id="flowRoot3773"
       style="font-size:40px;font-style:normal;font-weight:normal;line-height:125%;letter-spacing:0px;word-spacing:0px;fill:#000000;fill-opacity:1;stroke:none;font-family:Sans"><flowRegion
         id="flowRegion3775"><rect
           id="rect3777"
           width="6.4285712"
           height="60"
           x="255"
           y="-46.209248" /></flowRegion><flowPara
         id="flowPara3779"></flowPara></flowRoot>    <text
       xml:space="preserve"
       style="font-size:40px;font-style:normal;font-weight:normal;line-height:125%;letter-spacing:0px;word-spacing:0px;fill:#000000;fill-opacity:1;stroke:none;font-family:Sans"
       x="1.4285713"
       y="112.36218"
       id="text3781"
       sodipodi:linespacing="125%"><tspan
         sodipodi:role="line"
         id="tspan3783"
         x="1.4285713"
         y="112.36218" /></text>
    <path
       sodipodi:nodetypes="cc"
       style="fill:#ffd42a;stroke:#d4aa00;stroke-width:2;stroke-linecap:butt;stroke-linejoin:miter;stroke-miterlimit:4;stroke-opacity:1;stroke-dasharray:2, 2;stroke-dashoffset:0"
       d="M 53.538085,164.94062 207.90645,164.79269"
       id="path3878"
       inkscape:connector-curvature="0" />
  </g>
</svg>
